<svg xmlns="http://www.w3.org/2000/svg"  viewBox="0 0 4335 4335" width="67px" height="67px" fill-rule="evenodd" clip-rule="evenodd" image-rendering="optimizeQuality" shape-rendering="geometricPrecision" text-rendering="geometricPrecision"><path fill="red" d="M-4152 11908l0 620 -904 0 -91 1634c0,0 -39,522 295,650 335,128 512,-69 561,-266 49,-197 49,-197 49,-197l167 0c0,0 -10,660 -374,985 -364,325 -926,197 -1073,-345 -148,-542 -108,-1260 -30,-1782 43,-284 71,-522 88,-679l-864 0 -317 2609c0,0 -98,414 -463,414 -364,0 -463,-354 -305,-660 158,-305 404,-207 473,-807 51,-444 150,-1194 199,-1556l-228 0c0,0 -414,-10 -581,246 -167,256 -167,256 -167,256l-148 0c0,0 128,-1113 1073,-1113 945,0 2639,-10 2639,-10z"/><path d="M1102 1640l2130 0 0 352 -2130 0 0 -352zm0 703l2130 0 0 352 -2130 0 0 -352z"/></svg>