<svg xmlns="http://www.w3.org/2000/svg"  viewBox="0 0 50 50" width="50px" height="50px"><path d="M 25 7 C 23.894531 7 23 7.894531 23 9 C 23 9.351563 23.09375 9.683594 23.25 9.96875 L 5.09375 39 C 5.0625 39 5.03125 39 5 39 C 3.894531 39 3 39.894531 3 41 C 3 42.105469 3.894531 43 5 43 C 5.753906 43 6.410156 42.585938 6.75 41.96875 L 43.25 41.96875 C 43.589844 42.585938 44.246094 43 45 43 C 46.105469 43 47 42.105469 47 41 C 47 39.894531 46.105469 39 45 39 C 44.96875 39 44.9375 39 44.90625 39 L 26.75 9.96875 C 26.90625 9.683594 27 9.351563 27 9 C 27 7.894531 26.105469 7 25 7 Z M 24.90625 11 C 24.9375 11 24.96875 11 25 11 C 25.03125 11 25.0625 11 25.09375 11 L 43.25 40.03125 L 6.75 40.03125 Z"/></svg>